<svg width="16" height="16" viewBox="0 0 16 16" fill="none" xmlns="http://www.w3.org/2000/svg">
<path d="M8.0001 2.99999C8.0001 2.11634 7.28375 1.39999 6.4001 1.39999C5.51644 1.39999 4.8001 2.11634 4.8001 2.99999C4.8001 3.88365 5.51644 4.59999 6.4001 4.59999C7.28375 4.59999 8.0001 3.88365 8.0001 2.99999Z" fill="#94A3B8"/>
<path d="M13.8001 3.59999C14.1315 3.59999 14.4001 3.33136 14.4001 2.99999C14.4001 2.66862 14.1315 2.39999 13.8001 2.39999L9.4001 2.39999C9.06873 2.39999 8.8001 2.66862 8.8001 2.99999C8.8001 3.33136 9.06873 3.59999 9.4001 3.59999L13.8001 3.59999Z" fill="#94A3B8"/>
<path d="M4.0001 2.99999C4.0001 3.33136 3.73147 3.59999 3.4001 3.59999H2.2001C1.86873 3.59999 1.6001 3.33136 1.6001 2.99999C1.6001 2.66862 1.86873 2.39999 2.2001 2.39999L3.4001 2.39999C3.73147 2.39999 4.0001 2.66862 4.0001 2.99999Z" fill="#94A3B8"/>
<path d="M3.4001 13.6C3.73147 13.6 4.0001 13.3314 4.0001 13C4.0001 12.6686 3.73147 12.4 3.4001 12.4H2.2001C1.86873 12.4 1.6001 12.6686 1.6001 13C1.6001 13.3314 1.86873 13.6 2.2001 13.6H3.4001Z" fill="#94A3B8"/>
<path d="M13.8001 13.6C14.1315 13.6 14.4001 13.3314 14.4001 13C14.4001 12.6686 14.1315 12.4 13.8001 12.4H9.4001C9.06873 12.4 8.8001 12.6686 8.8001 13C8.8001 13.3314 9.06873 13.6 9.4001 13.6H13.8001Z" fill="#94A3B8"/>
<path d="M7.2001 7.99999C7.2001 8.33137 6.93147 8.59999 6.6001 8.59999H2.2001C1.86873 8.59999 1.6001 8.33137 1.6001 7.99999C1.6001 7.66862 1.86873 7.39999 2.2001 7.39999L6.6001 7.39999C6.93147 7.39999 7.2001 7.66862 7.2001 7.99999Z" fill="#94A3B8"/>
<path d="M13.8001 8.59999C14.1315 8.59999 14.4001 8.33137 14.4001 7.99999C14.4001 7.66862 14.1315 7.39999 13.8001 7.39999H12.6001C12.2687 7.39999 12.0001 7.66862 12.0001 7.99999C12.0001 8.33137 12.2687 8.59999 12.6001 8.59999H13.8001Z" fill="#94A3B8"/>
<path d="M11.2001 7.99999C11.2001 7.11634 10.4838 6.39999 9.6001 6.39999C8.71644 6.39999 8.0001 7.11634 8.0001 7.99999C8.0001 8.88365 8.71644 9.59999 9.6001 9.59999C10.4838 9.59999 11.2001 8.88365 11.2001 7.99999Z" fill="#94A3B8"/>
<path d="M8.0001 13C8.0001 12.1163 7.28375 11.4 6.4001 11.4C5.51644 11.4 4.8001 12.1163 4.8001 13C4.8001 13.8837 5.51644 14.6 6.4001 14.6C7.28375 14.6 8.0001 13.8837 8.0001 13Z" fill="#94A3B8"/>
</svg>
