<svg width="73" height="17" viewBox="0 0 73 17" fill="none" xmlns="http://www.w3.org/2000/svg">
<g clip-path="url(#clip0_206_21)">
<path d="M21.2847 9.37659C21.2847 6.82663 23.0155 5.09583 25.3937 5.09583C26.5035 5.09583 27.4085 5.39971 28.2938 5.95462L28.0427 8.25355H27.4878C27.25 7.63257 27.0584 7.23621 26.8074 6.85966C26.3648 6.17923 26.0014 5.97444 25.4597 5.97444C24.3499 5.97444 23.4911 7.27584 23.4911 9.13216C23.4911 10.9885 24.4556 12.1115 26.0146 12.1115C26.6951 12.1115 27.3953 11.8737 27.9172 11.4773L28.3796 12.0785C27.5539 12.9637 26.5233 13.3931 25.2417 13.3931C22.771 13.3931 21.2913 11.9001 21.2913 9.38319L21.2847 9.37659Z" fill="#FAFAFA"/>
<path d="M29.4697 9.23125C29.4697 6.86626 31.26 5.09583 33.5787 5.09583C36.0362 5.09583 37.6877 6.74735 37.6877 9.26428C37.6877 11.6293 35.8975 13.3865 33.5787 13.3865C31.1345 13.3865 29.4697 11.7548 29.4697 9.23125ZM35.4813 9.26428C35.4813 7.20317 34.7678 5.96783 33.5787 5.96783C32.3896 5.96783 31.6762 7.18996 31.6762 9.23125C31.6762 11.2725 32.4028 12.5145 33.5787 12.5145C34.7546 12.5145 35.4813 11.3122 35.4813 9.26428Z" fill="#FAFAFA"/>
<path d="M38.54 13.2279V12.7523L39.1412 12.4815C39.6036 12.2568 39.7291 12.0719 39.7291 11.517V7.91663C39.7291 7.17014 39.5838 6.95214 39.1412 6.82001L38.5863 6.64826V6.18583L41.3278 5.08921L41.7572 5.34025V11.5104C41.7572 12.0653 41.8827 12.2568 42.3452 12.4748L42.9463 12.7457V13.2213H38.54V13.2279ZM39.2865 2.63835C39.2865 1.84561 39.8745 1.32373 40.5879 1.32373C41.3014 1.32373 41.9025 1.84561 41.9025 2.63835C41.9025 3.43108 41.3608 3.95296 40.5879 3.95296C39.815 3.95296 39.2865 3.35181 39.2865 2.63835Z" fill="#FAFAFA"/>
<path d="M43.9634 13.2279V12.7523L44.5645 12.4815C45.0402 12.2568 45.1525 12.0521 45.1525 11.517V7.94966C45.1525 7.22299 45.027 6.98517 44.5645 6.83984L44.0096 6.66808V6.20565L46.5794 5.09583L47.0088 5.34686V6.85305C47.8346 5.75644 48.8981 5.09583 49.9089 5.09583C51.5604 5.09583 52.5711 6.28493 52.5711 8.26676V11.517C52.5711 12.0587 52.6834 12.2635 53.1591 12.4815L53.747 12.7523V13.2279H49.42V12.7523L50.0212 12.4815C50.4308 12.2767 50.5431 12.0983 50.5431 11.517V8.67634C50.5431 7.39475 49.9749 6.72753 48.9444 6.72753C48.297 6.72753 47.643 7.09087 47.1872 7.64578V11.517C47.1872 12.1049 47.2796 12.2767 47.709 12.4815L48.3102 12.7523V13.2279H43.9634Z" fill="#FAFAFA"/>
<path d="M54.9561 12.0719C54.9561 11.3254 55.511 10.7573 56.2575 10.7573C57.0039 10.7573 57.5721 11.3254 57.5721 12.0719C57.5721 12.8184 57.0172 13.3865 56.2575 13.3865C55.4978 13.3865 54.9561 12.8184 54.9561 12.0719Z" fill="#FAFAFA"/>
<path d="M58.8208 13.2279V12.7523L59.422 12.4815C59.8844 12.2568 60.0099 12.0719 60.0099 11.517V7.91663C60.0099 7.17014 59.8646 6.95214 59.422 6.82001L58.867 6.64826V6.18583L61.6086 5.08921L62.038 5.34025V11.5104C62.038 12.0653 62.1635 12.2568 62.6259 12.4748L63.2271 12.7457V13.2213H58.8208V13.2279ZM59.5673 2.63835C59.5673 1.84561 60.1552 1.32373 60.8687 1.32373C61.5822 1.32373 62.1833 1.84561 62.1833 2.63835C62.1833 3.43108 61.6416 3.95296 60.8687 3.95296C60.0958 3.95296 59.5673 3.35181 59.5673 2.63835Z" fill="#FAFAFA"/>
<path d="M63.98 9.23125C63.98 6.86626 65.7702 5.09583 68.089 5.09583C70.5465 5.09583 72.198 6.74735 72.198 9.26428C72.198 11.6293 70.4077 13.3865 68.089 13.3865C65.6447 13.3865 63.98 11.7548 63.98 9.23125ZM69.9915 9.26428C69.9915 7.20317 69.2781 5.96783 68.089 5.96783C66.8999 5.96783 66.1864 7.18996 66.1864 9.23125C66.1864 11.2725 66.9131 12.5145 68.089 12.5145C69.2649 12.5145 69.9915 11.3122 69.9915 9.26428Z" fill="#FAFAFA"/>
<path d="M12.142 0.365845H3.85797C1.72727 0.365845 0 2.09312 0 4.22381V12.5079C0 14.6386 1.72727 16.3658 3.85797 16.3658H12.142C14.2727 16.3658 16 14.6386 16 12.5079V4.22381C16 2.09312 14.2727 0.365845 12.142 0.365845Z" fill="#D9F99D"/>
<path d="M9.30792 7.74488L12.8818 4.17098C13.1857 3.8671 12.9677 3.34521 12.5383 3.34521H8.19809V6.72094C8.19809 7.15033 7.67621 7.36834 7.37233 7.06446L3.79842 3.49055C3.49454 3.18667 2.97266 3.40467 2.97266 3.83407V8.17428H6.34838C6.77778 8.17428 6.99578 8.69616 6.6919 9.00004L3.11799 12.574C2.81411 12.8778 3.03211 13.3997 3.46151 13.3997H7.80172V10.024C7.80172 9.59459 8.32361 9.37659 8.62749 9.68047L12.2014 13.2544C12.5053 13.5583 13.0272 13.3403 13.0272 12.9109V8.57065H9.65143C9.22204 8.57065 9.00403 8.04877 9.30792 7.74488Z" fill="#404040"/>
</g>
<defs>
<clipPath id="clip0_206_21">
<rect width="72.1916" height="16" fill="white" transform="translate(0 0.365845)"/>
</clipPath>
</defs>
</svg>
