<svg width="16" height="16" viewBox="0 0 16 16" fill="none" xmlns="http://www.w3.org/2000/svg">
<path fill-rule="evenodd" clip-rule="evenodd" d="M7.99978 1.60001C5.34881 1.60001 3.19978 3.74904 3.19978 6.40001C3.19978 7.90931 2.83679 9.33208 2.19389 10.5875C2.10854 10.7541 2.10589 10.9511 2.18672 11.12C2.26756 11.2889 2.42262 11.4104 2.60596 11.4484C3.4601 11.6258 4.32926 11.7618 5.21121 11.8544C5.33976 13.2816 6.53917 14.4 7.9998 14.4C9.46044 14.4 10.6599 13.2816 10.7884 11.8544C11.6703 11.7618 12.5395 11.6258 13.3936 11.4484C13.5769 11.4104 13.732 11.2889 13.8128 11.12C13.8937 10.9511 13.891 10.7541 13.8057 10.5875C13.1628 9.33208 12.7998 7.90931 12.7998 6.40001C12.7998 3.74904 10.6507 1.60001 7.99978 1.60001ZM6.43924 11.9546C6.95562 11.9847 7.47594 12 7.99978 12C8.52363 12 9.04397 11.9847 9.56037 11.9546C9.39903 12.6676 8.76159 13.2 7.9998 13.2C7.23802 13.2 6.60058 12.6676 6.43924 11.9546Z" fill="#94A3B8"/>
</svg>
