<svg width="16" height="17" viewBox="0 0 16 17" fill="none" xmlns="http://www.w3.org/2000/svg">
<path d="M4.5 8.79272C4.5 9.06887 4.27614 9.29272 4 9.29272C3.72386 9.29272 3.5 9.06887 3.5 8.79272C3.5 8.51658 3.72386 8.29272 4 8.29272C4.27614 8.29272 4.5 8.51658 4.5 8.79272Z" stroke="#94A3B8" stroke-width="1.5" stroke-linecap="round" stroke-linejoin="round"/>
<path d="M8.5 8.79272C8.5 9.06887 8.27614 9.29272 8 9.29272C7.72386 9.29272 7.5 9.06887 7.5 8.79272C7.5 8.51658 7.72386 8.29272 8 8.29272C8.27614 8.29272 8.5 8.51658 8.5 8.79272Z" stroke="#94A3B8" stroke-width="1.5" stroke-linecap="round" stroke-linejoin="round"/>
<path d="M12.5 8.79272C12.5 9.06887 12.2761 9.29272 12 9.29272C11.7239 9.29272 11.5 9.06887 11.5 8.79272C11.5 8.51658 11.7239 8.29272 12 8.29272C12.2761 8.29272 12.5 8.51658 12.5 8.79272Z" stroke="#94A3B8" stroke-width="1.5" stroke-linecap="round" stroke-linejoin="round"/>
</svg>
