<svg width="14" height="14" viewBox="0 0 14 14" fill="none" xmlns="http://www.w3.org/2000/svg">
<path fill-rule="evenodd" clip-rule="evenodd" d="M6.2999 2.44999C4.17361 2.44999 2.4499 4.1737 2.4499 6.29999C2.4499 8.42629 4.17361 10.15 6.2999 10.15C7.3632 10.15 8.32498 9.71964 9.02226 9.02236C9.71955 8.32507 10.1499 7.36329 10.1499 6.29999C10.1499 4.1737 8.4262 2.44999 6.2999 2.44999ZM1.3999 6.29999C1.3999 3.5938 3.59371 1.39999 6.2999 1.39999C9.0061 1.39999 11.1999 3.5938 11.1999 6.29999C11.1999 7.46376 10.7937 8.53339 10.1161 9.37374L12.4461 11.7038C12.6512 11.9088 12.6512 12.2412 12.4461 12.4462C12.2411 12.6513 11.9087 12.6513 11.7037 12.4462L9.37365 10.1162C8.5333 10.7938 7.46367 11.2 6.2999 11.2C3.59371 11.2 1.3999 9.00619 1.3999 6.29999Z" fill="#94A3B8"/>
</svg>
