<svg width="16" height="16" viewBox="0 0 16 16" fill="none" xmlns="http://www.w3.org/2000/svg">
<g clip-path="url(#clip0_211_6115)">
<path fill-rule="evenodd" clip-rule="evenodd" d="M6.67118 1.4431C6.74597 1.06916 7.0743 0.799988 7.45565 0.799988H8.54396C8.92531 0.799988 9.25364 1.06916 9.32843 1.44309L9.56408 2.62139C9.96159 2.7368 10.3409 2.89508 10.6966 3.09089L11.6967 2.4241C12.014 2.21257 12.4365 2.2544 12.7062 2.52405L13.4757 3.29361C13.7454 3.56326 13.7872 3.98575 13.5757 4.30305L12.9089 5.30325C13.1047 5.65894 13.263 6.03821 13.3784 6.43571L14.5567 6.67137C14.9306 6.74615 15.1998 7.07449 15.1998 7.45583V8.54414C15.1998 8.92549 14.9306 9.25382 14.5567 9.32861L13.3784 9.56427C13.263 9.96174 13.1047 10.341 12.9089 10.6967L13.5758 11.6969C13.7873 12.0142 13.7455 12.4367 13.4758 12.7064L12.7063 13.4759C12.4366 13.7456 12.0141 13.7874 11.6968 13.5759L10.6966 12.9091C10.3409 13.1049 9.9616 13.2632 9.56409 13.3786L9.32843 14.5569C9.25364 14.9308 8.92531 15.2 8.54396 15.2H7.45565C7.0743 15.2 6.74597 14.9308 6.67118 14.5569L6.43552 13.3786C6.03803 13.2632 5.65876 13.1049 5.30307 12.9091L4.30286 13.5759C3.98556 13.7874 3.56307 13.7456 3.29341 13.4759L2.52386 12.7064C2.25421 12.4367 2.21237 12.0142 2.42391 11.6969L3.09071 10.6967C2.8949 10.341 2.73662 9.96177 2.62121 9.56427L1.44291 9.32861C1.06897 9.25382 0.799805 8.92549 0.799805 8.54414L0.799805 7.45583C0.799805 7.07449 1.06897 6.74615 1.44291 6.67137L2.62121 6.43571C2.73662 6.03818 2.89492 5.65889 3.09075 5.30317L2.424 4.30304C2.21246 3.98575 2.2543 3.56325 2.52395 3.2936L3.2935 2.52404C3.56315 2.25439 3.98565 2.21256 4.30295 2.42409L5.30311 3.09086C5.65879 2.89506 6.03804 2.73679 6.43552 2.62139L6.67118 1.4431ZM10.3998 7.99999C10.3998 9.32547 9.32529 10.4 7.9998 10.4C6.67432 10.4 5.5998 9.32547 5.5998 7.99999C5.5998 6.6745 6.67432 5.59999 7.9998 5.59999C9.32529 5.59999 10.3998 6.6745 10.3998 7.99999Z" fill="#D9F99D"/>
</g>
<defs>
<clipPath id="clip0_211_6115">
<rect width="16" height="16" fill="white"/>
</clipPath>
</defs>
</svg>
