<svg width="16" height="17" viewBox="0 0 16 17" fill="none" xmlns="http://www.w3.org/2000/svg">
<path d="M12.142 0.365845H3.85797C1.72727 0.365845 0 2.09312 0 4.22381V12.5079C0 14.6386 1.72727 16.3658 3.85797 16.3658H12.142C14.2727 16.3658 16 14.6386 16 12.5079V4.22381C16 2.09312 14.2727 0.365845 12.142 0.365845Z" fill="#D9F99D"/>
<path d="M9.30792 7.74488L12.8818 4.17098C13.1857 3.8671 12.9677 3.34521 12.5383 3.34521H8.19809V6.72094C8.19809 7.15033 7.67621 7.36834 7.37233 7.06446L3.79842 3.49055C3.49454 3.18667 2.97266 3.40467 2.97266 3.83407V8.17428H6.34838C6.77778 8.17428 6.99578 8.69616 6.6919 9.00004L3.11799 12.574C2.81411 12.8778 3.03211 13.3997 3.46151 13.3997H7.80172V10.024C7.80172 9.59459 8.32361 9.37659 8.62749 9.68047L12.2014 13.2544C12.5053 13.5583 13.0272 13.3403 13.0272 12.9109V8.57065H9.65143C9.22204 8.57065 9.00403 8.04877 9.30792 7.74488Z" fill="#404040"/>
</svg>
